<svg width="1024" height="1024" viewBox="0 0 1024 1024" fill="none" xmlns="http://www.w3.org/2000/svg">
<path d="M512 0H1024V720H512V0Z" fill="#E58600"/>
<path d="M692.329 641.808V639.308H709.783V641.808H702.465V662.58H699.647V641.808H692.329ZM716.53 662.989C715.424 662.989 714.421 662.781 713.519 662.364C712.617 661.94 711.902 661.33 711.371 660.535C710.841 659.732 710.576 658.762 710.576 657.626C710.576 656.626 710.773 655.815 711.167 655.194C711.561 654.565 712.087 654.073 712.746 653.717C713.405 653.361 714.133 653.095 714.928 652.921C715.731 652.739 716.538 652.595 717.349 652.489C718.409 652.353 719.269 652.251 719.928 652.183C720.595 652.107 721.08 651.982 721.383 651.808C721.693 651.633 721.849 651.33 721.849 650.899V650.808C721.849 649.686 721.542 648.815 720.928 648.194C720.322 647.573 719.402 647.262 718.167 647.262C716.886 647.262 715.883 647.542 715.155 648.103C714.428 648.664 713.917 649.262 713.621 649.899L711.076 648.989C711.53 647.929 712.136 647.103 712.894 646.512C713.659 645.914 714.492 645.497 715.394 645.262C716.303 645.02 717.197 644.899 718.076 644.899C718.636 644.899 719.28 644.967 720.008 645.103C720.742 645.232 721.451 645.501 722.133 645.91C722.822 646.319 723.394 646.936 723.849 647.762C724.303 648.588 724.53 649.694 724.53 651.08V662.58H721.849V660.217H721.712C721.53 660.595 721.227 661.001 720.803 661.433C720.379 661.864 719.814 662.232 719.11 662.535C718.405 662.838 717.546 662.989 716.53 662.989ZM716.939 660.58C718 660.58 718.894 660.372 719.621 659.955C720.356 659.539 720.909 659.001 721.28 658.342C721.659 657.683 721.849 656.989 721.849 656.262V653.808C721.735 653.944 721.485 654.069 721.099 654.183C720.72 654.289 720.28 654.383 719.78 654.467C719.288 654.542 718.807 654.611 718.337 654.671C717.875 654.724 717.5 654.77 717.212 654.808C716.515 654.899 715.864 655.046 715.258 655.251C714.659 655.448 714.174 655.747 713.803 656.149C713.439 656.542 713.258 657.08 713.258 657.762C713.258 658.694 713.602 659.399 714.292 659.876C714.989 660.345 715.871 660.58 716.939 660.58ZM729.425 669.126V645.126H732.016V647.899H732.334C732.531 647.595 732.804 647.209 733.153 646.739C733.509 646.262 734.016 645.838 734.675 645.467C735.342 645.088 736.243 644.899 737.38 644.899C738.849 644.899 740.145 645.266 741.266 646.001C742.387 646.736 743.262 647.777 743.891 649.126C744.52 650.474 744.834 652.065 744.834 653.899C744.834 655.747 744.52 657.349 743.891 658.705C743.262 660.054 742.391 661.099 741.278 661.842C740.164 662.577 738.88 662.944 737.425 662.944C736.304 662.944 735.406 662.758 734.732 662.387C734.058 662.008 733.539 661.58 733.175 661.103C732.812 660.618 732.531 660.217 732.334 659.899H732.107V669.126H729.425ZM732.062 653.853C732.062 655.171 732.255 656.334 732.641 657.342C733.028 658.342 733.592 659.126 734.334 659.694C735.077 660.255 735.986 660.535 737.062 660.535C738.183 660.535 739.118 660.239 739.868 659.649C740.626 659.05 741.194 658.247 741.573 657.239C741.959 656.224 742.153 655.095 742.153 653.853C742.153 652.626 741.963 651.52 741.584 650.535C741.213 649.542 740.649 648.758 739.891 648.183C739.141 647.599 738.198 647.308 737.062 647.308C735.971 647.308 735.054 647.584 734.312 648.137C733.569 648.683 733.009 649.448 732.63 650.433C732.251 651.41 732.062 652.55 732.062 653.853ZM765.516 645.126V647.399H756.471V645.126H765.516ZM759.107 640.944H761.789V657.58C761.789 658.338 761.899 658.906 762.118 659.285C762.346 659.656 762.634 659.906 762.982 660.035C763.338 660.156 763.713 660.217 764.107 660.217C764.403 660.217 764.645 660.202 764.834 660.171C765.024 660.133 765.175 660.103 765.289 660.08L765.834 662.489C765.653 662.558 765.399 662.626 765.073 662.694C764.747 662.77 764.334 662.808 763.834 662.808C763.077 662.808 762.334 662.645 761.607 662.319C760.887 661.993 760.289 661.497 759.812 660.83C759.342 660.164 759.107 659.323 759.107 658.308V640.944ZM776.454 662.944C774.878 662.944 773.495 662.569 772.306 661.819C771.124 661.069 770.2 660.02 769.533 658.671C768.874 657.323 768.545 655.747 768.545 653.944C768.545 652.126 768.874 650.539 769.533 649.183C770.2 647.827 771.124 646.774 772.306 646.024C773.495 645.274 774.878 644.899 776.454 644.899C778.029 644.899 779.408 645.274 780.59 646.024C781.779 646.774 782.704 647.827 783.363 649.183C784.029 650.539 784.363 652.126 784.363 653.944C784.363 655.747 784.029 657.323 783.363 658.671C782.704 660.02 781.779 661.069 780.59 661.819C779.408 662.569 778.029 662.944 776.454 662.944ZM776.454 660.535C777.651 660.535 778.635 660.228 779.408 659.614C780.181 659.001 780.753 658.194 781.124 657.194C781.495 656.194 781.681 655.111 781.681 653.944C781.681 652.777 781.495 651.69 781.124 650.683C780.753 649.675 780.181 648.861 779.408 648.239C778.635 647.618 777.651 647.308 776.454 647.308C775.257 647.308 774.272 647.618 773.499 648.239C772.726 648.861 772.154 649.675 771.783 650.683C771.412 651.69 771.226 652.777 771.226 653.944C771.226 655.111 771.412 656.194 771.783 657.194C772.154 658.194 772.726 659.001 773.499 659.614C774.272 660.228 775.257 660.535 776.454 660.535ZM797.82 662.58V639.308H811.775V641.808H800.638V649.671H810.729V652.171H800.638V662.58H797.82ZM818.92 639.308V662.58H816.238V639.308H818.92ZM823.831 662.58V645.126H826.513V662.58H823.831ZM825.195 642.217C824.672 642.217 824.222 642.039 823.843 641.683C823.472 641.327 823.286 640.899 823.286 640.399C823.286 639.899 823.472 639.47 823.843 639.114C824.222 638.758 824.672 638.58 825.195 638.58C825.718 638.58 826.165 638.758 826.536 639.114C826.915 639.47 827.104 639.899 827.104 640.399C827.104 640.899 826.915 641.327 826.536 641.683C826.165 642.039 825.718 642.217 825.195 642.217ZM831.425 669.126V645.126H834.016V647.899H834.334C834.531 647.595 834.804 647.209 835.153 646.739C835.509 646.262 836.016 645.838 836.675 645.467C837.342 645.088 838.243 644.899 839.38 644.899C840.849 644.899 842.145 645.266 843.266 646.001C844.387 646.736 845.262 647.777 845.891 649.126C846.52 650.474 846.834 652.065 846.834 653.899C846.834 655.747 846.52 657.349 845.891 658.705C845.262 660.054 844.391 661.099 843.278 661.842C842.164 662.577 840.88 662.944 839.425 662.944C838.304 662.944 837.406 662.758 836.732 662.387C836.058 662.008 835.539 661.58 835.175 661.103C834.812 660.618 834.531 660.217 834.334 659.899H834.107V669.126H831.425ZM834.062 653.853C834.062 655.171 834.255 656.334 834.641 657.342C835.028 658.342 835.592 659.126 836.334 659.694C837.077 660.255 837.986 660.535 839.062 660.535C840.183 660.535 841.118 660.239 841.868 659.649C842.626 659.05 843.194 658.247 843.573 657.239C843.959 656.224 844.153 655.095 844.153 653.853C844.153 652.626 843.963 651.52 843.584 650.535C843.213 649.542 842.649 648.758 841.891 648.183C841.141 647.599 840.198 647.308 839.062 647.308C837.971 647.308 837.054 647.584 836.312 648.137C835.569 648.683 835.009 649.448 834.63 650.433C834.251 651.41 834.062 652.55 834.062 653.853Z" fill="white"/>
<path d="M638.112 143.62C639.36 142.42 640.128 138.82 640.128 134.884V113.908C640.128 109.972 639.36 106.372 638.112 105.172H661.824V108.916C660.624 107.668 658.896 106.132 653.088 106.132H647.76C643.824 106.132 643.728 109.972 643.728 113.908V123.796C644.736 122.02 646.56 121.252 649.248 121.204H649.776C653.712 121.204 657.312 119.908 658.512 118.66V124.708C657.312 123.46 653.712 122.164 649.776 122.164H649.584C645.648 122.164 643.728 123.652 643.728 128.5V134.884C643.728 138.82 644.496 142.42 645.744 143.62H638.112ZM663.284 143.62C664.532 142.42 665.3 138.82 665.3 134.884V113.908C665.3 109.972 664.532 106.372 663.284 105.172H670.916C669.668 106.372 668.9 109.972 668.9 113.908V134.884C668.9 138.82 668.996 142.66 672.98 142.66H678.404C684.74 142.66 687.332 139.828 688.436 138.58L687.284 142.66L686.996 143.62H663.284ZM714.869 143.62C716.117 142.42 715.253 139.252 713.861 135.22L705.893 113.284C705.413 112.132 704.885 111.028 704.357 110.02L694.901 136.324C693.797 139.828 693.173 142.564 694.277 143.62H689.189C690.437 142.42 692.693 139.492 694.325 135.22L703.733 108.964C702.677 107.188 701.621 105.844 700.901 105.172H706.853L717.893 135.508C719.477 139.396 721.685 142.468 722.885 143.62H714.869ZM734.855 144.388C728.471 144.388 724.103 141.748 722.663 137.188L726.551 132.244C726.551 138.82 730.199 143.428 735.527 143.428C739.799 143.428 744.119 139.972 744.119 134.26C744.119 123.124 724.631 126.004 724.631 112.612C724.631 107.524 729.575 104.452 735.191 104.452C740.903 104.452 742.823 107.524 746.231 107.524L742.871 111.748C742.391 108.004 739.943 105.412 735.431 105.412C731.975 105.412 728.327 107.572 728.327 111.172C728.327 123.124 747.959 118.756 747.959 133.636C747.959 140.356 741.959 144.388 734.855 144.388ZM750.19 143.62C751.438 142.42 752.206 138.82 752.206 134.884V113.908C752.206 109.972 751.438 106.372 750.19 105.172H757.822C756.574 106.372 755.806 109.972 755.806 113.908V128.212C756.862 126.388 758.878 125.62 761.902 125.572C771.262 125.38 772.702 122.116 772.702 114.724V113.908C772.702 109.972 771.934 106.372 770.686 105.172H778.318C777.07 106.372 776.302 109.972 776.302 113.908V134.884C776.302 138.82 777.07 142.42 778.318 143.62H770.686C771.934 142.42 772.702 138.82 772.702 134.884V124.42C770.398 125.956 766.942 126.436 762.094 126.532C757.726 126.628 755.806 127.972 755.806 132.82V134.884C755.806 138.82 756.574 142.42 757.822 143.62H750.19ZM795.215 144.388C787.007 144.388 779.663 137.908 779.663 124.372C779.663 110.932 787.007 104.452 795.215 104.452C798.527 104.452 801.743 105.508 804.383 107.668L800.687 112.372C799.535 107.908 796.271 105.748 793.535 105.748C788.255 105.748 782.639 109.78 783.839 124.372C785.039 139.012 791.615 142.132 796.895 142.132C800.351 142.132 803.615 141.172 806.831 136.9L807.599 137.476C804.671 142.132 800.063 144.388 795.215 144.388ZM833.134 143.62C834.382 142.42 833.518 139.252 832.126 135.22L824.158 113.284C823.678 112.132 823.15 111.028 822.622 110.02L813.166 136.324C812.062 139.828 811.438 142.564 812.542 143.62H807.454C808.702 142.42 810.958 139.492 812.59 135.22L821.998 108.964C820.942 107.188 819.886 105.844 819.166 105.172H825.118L836.158 135.508C837.742 139.396 839.95 142.468 841.15 143.62H833.134ZM842.909 143.62C844.157 142.42 844.925 138.82 844.925 134.884V113.908C844.925 109.972 844.157 106.372 842.909 105.172H848.141C850.397 105.172 851.453 104.452 853.997 104.452C861.533 104.452 867.773 109.108 867.773 116.26C867.773 122.068 864.173 125.908 859.181 127.156C863.741 128.212 866.189 131.284 867.293 136.084C868.349 139.78 868.781 142.516 869.933 143.62H862.397C863.645 142.42 864.557 138.82 863.645 134.884C862.589 130.612 860.285 127.78 855.341 127.636C852.029 127.636 849.389 126.292 848.525 124.42V134.884C848.525 138.82 849.293 142.42 850.541 143.62H842.909ZM848.525 118.372C848.525 125.044 852.557 126.676 855.341 126.676C861.005 126.676 864.317 122.116 863.309 114.82C862.349 107.716 857.117 105.412 853.469 105.412C848.813 105.412 848.525 109.972 848.525 113.86V118.372ZM872.346 143.62C873.594 142.42 874.362 138.82 874.362 134.884V113.908C874.362 109.972 873.594 106.372 872.346 105.172H877.578C879.834 105.172 880.794 104.452 882.906 104.452C891.114 104.452 898.554 110.932 898.554 124.372C898.554 137.908 891.114 144.388 883.962 144.388C880.554 144.388 879.93 143.62 877.962 143.62H872.346ZM877.962 134.884C877.962 141.556 881.802 143.332 884.586 143.332C889.914 143.332 895.578 139.012 894.378 124.372C893.178 109.78 886.554 105.412 882.714 105.412C878.25 105.412 877.962 109.972 877.962 113.86V134.884Z" fill="#242424"/>
<path d="M786.574 585.401V596.548M786.574 596.548H775.427M786.574 596.548L777.972 588.448C775.41 585.884 772.083 584.222 768.494 583.713C764.905 583.204 761.247 583.875 758.073 585.625C754.898 587.376 752.378 590.111 750.893 593.418C749.408 596.725 749.038 600.425 749.839 603.961C750.64 607.496 752.568 610.676 755.333 613.02C758.098 615.365 761.55 616.747 765.169 616.959C768.788 617.17 772.378 616.2 775.398 614.194C778.417 612.188 780.703 609.255 781.911 605.837" stroke="#242424" stroke-width="3" stroke-linecap="round" stroke-linejoin="round"/>
<path d="M0 0H512V720H0V0Z" fill="#242424"/>
<path d="M180.672 627.214V624.714H198.127V627.214H190.809V647.987H187.991V627.214H180.672ZM204.874 648.396C203.768 648.396 202.764 648.188 201.863 647.771C200.961 647.347 200.245 646.737 199.715 645.942C199.185 645.139 198.92 644.169 198.92 643.033C198.92 642.033 199.117 641.222 199.51 640.601C199.904 639.972 200.431 639.48 201.09 639.124C201.749 638.767 202.476 638.502 203.272 638.328C204.075 638.146 204.882 638.002 205.692 637.896C206.753 637.76 207.613 637.658 208.272 637.589C208.939 637.514 209.423 637.389 209.726 637.214C210.037 637.04 210.192 636.737 210.192 636.305V636.214C210.192 635.093 209.885 634.222 209.272 633.601C208.666 632.98 207.745 632.669 206.51 632.669C205.23 632.669 204.226 632.949 203.499 633.51C202.772 634.071 202.26 634.669 201.965 635.305L199.42 634.396C199.874 633.336 200.48 632.51 201.238 631.919C202.003 631.321 202.836 630.904 203.738 630.669C204.647 630.427 205.541 630.305 206.42 630.305C206.98 630.305 207.624 630.374 208.351 630.51C209.086 630.639 209.795 630.908 210.476 631.317C211.166 631.726 211.738 632.343 212.192 633.169C212.647 633.995 212.874 635.101 212.874 636.487V647.987H210.192V645.624H210.056C209.874 646.002 209.571 646.408 209.147 646.839C208.723 647.271 208.158 647.639 207.454 647.942C206.749 648.245 205.889 648.396 204.874 648.396ZM205.283 645.987C206.344 645.987 207.238 645.779 207.965 645.362C208.7 644.946 209.253 644.408 209.624 643.749C210.003 643.089 210.192 642.396 210.192 641.669V639.214C210.079 639.351 209.829 639.476 209.442 639.589C209.064 639.696 208.624 639.79 208.124 639.874C207.632 639.949 207.151 640.017 206.681 640.078C206.219 640.131 205.844 640.177 205.556 640.214C204.859 640.305 204.207 640.453 203.601 640.658C203.003 640.855 202.518 641.154 202.147 641.555C201.783 641.949 201.601 642.487 201.601 643.169C201.601 644.101 201.946 644.805 202.635 645.283C203.332 645.752 204.215 645.987 205.283 645.987ZM217.769 654.533V630.533H220.36V633.305H220.678C220.875 633.002 221.148 632.616 221.496 632.146C221.852 631.669 222.36 631.245 223.019 630.874C223.686 630.495 224.587 630.305 225.724 630.305C227.193 630.305 228.489 630.673 229.61 631.408C230.731 632.142 231.606 633.184 232.235 634.533C232.864 635.881 233.178 637.472 233.178 639.305C233.178 641.154 232.864 642.756 232.235 644.112C231.606 645.461 230.735 646.506 229.621 647.249C228.508 647.983 227.224 648.351 225.769 648.351C224.648 648.351 223.75 648.165 223.076 647.794C222.402 647.415 221.883 646.987 221.519 646.51C221.155 646.025 220.875 645.624 220.678 645.305H220.451V654.533H217.769ZM220.405 639.26C220.405 640.578 220.599 641.741 220.985 642.749C221.371 643.749 221.936 644.533 222.678 645.101C223.421 645.661 224.33 645.942 225.405 645.942C226.527 645.942 227.462 645.646 228.212 645.055C228.97 644.457 229.538 643.654 229.917 642.646C230.303 641.631 230.496 640.502 230.496 639.26C230.496 638.033 230.307 636.927 229.928 635.942C229.557 634.949 228.992 634.165 228.235 633.589C227.485 633.006 226.542 632.714 225.405 632.714C224.314 632.714 223.398 632.991 222.655 633.544C221.913 634.089 221.352 634.855 220.974 635.839C220.595 636.817 220.405 637.957 220.405 639.26ZM253.86 630.533V632.805H244.814V630.533H253.86ZM247.451 626.351H250.133V642.987C250.133 643.745 250.242 644.313 250.462 644.692C250.689 645.063 250.977 645.313 251.326 645.442C251.682 645.563 252.057 645.624 252.451 645.624C252.746 645.624 252.989 645.608 253.178 645.578C253.367 645.54 253.519 645.51 253.633 645.487L254.178 647.896C253.996 647.964 253.742 648.033 253.417 648.101C253.091 648.177 252.678 648.214 252.178 648.214C251.421 648.214 250.678 648.052 249.951 647.726C249.231 647.4 248.633 646.904 248.155 646.237C247.686 645.571 247.451 644.73 247.451 643.714V626.351ZM264.797 648.351C263.222 648.351 261.839 647.976 260.65 647.226C259.468 646.476 258.544 645.427 257.877 644.078C257.218 642.73 256.888 641.154 256.888 639.351C256.888 637.533 257.218 635.946 257.877 634.589C258.544 633.233 259.468 632.18 260.65 631.43C261.839 630.68 263.222 630.305 264.797 630.305C266.373 630.305 267.752 630.68 268.934 631.43C270.123 632.18 271.047 633.233 271.706 634.589C272.373 635.946 272.706 637.533 272.706 639.351C272.706 641.154 272.373 642.73 271.706 644.078C271.047 645.427 270.123 646.476 268.934 647.226C267.752 647.976 266.373 648.351 264.797 648.351ZM264.797 645.942C265.994 645.942 266.979 645.635 267.752 645.021C268.525 644.408 269.097 643.601 269.468 642.601C269.839 641.601 270.025 640.517 270.025 639.351C270.025 638.184 269.839 637.097 269.468 636.089C269.097 635.082 268.525 634.267 267.752 633.646C266.979 633.025 265.994 632.714 264.797 632.714C263.6 632.714 262.616 633.025 261.843 633.646C261.07 634.267 260.498 635.082 260.127 636.089C259.756 637.097 259.57 638.184 259.57 639.351C259.57 640.517 259.756 641.601 260.127 642.601C260.498 643.601 261.07 644.408 261.843 645.021C262.616 645.635 263.6 645.942 264.797 645.942ZM286.164 647.987V624.714H300.118V627.214H288.982V635.078H299.073V637.578H288.982V647.987H286.164ZM307.263 624.714V647.987H304.581V624.714H307.263ZM312.175 647.987V630.533H314.857V647.987H312.175ZM313.539 627.624C313.016 627.624 312.565 627.446 312.187 627.089C311.815 626.733 311.63 626.305 311.63 625.805C311.63 625.305 311.815 624.877 312.187 624.521C312.565 624.165 313.016 623.987 313.539 623.987C314.062 623.987 314.509 624.165 314.88 624.521C315.259 624.877 315.448 625.305 315.448 625.805C315.448 626.305 315.259 626.733 314.88 627.089C314.509 627.446 314.062 627.624 313.539 627.624ZM319.769 654.533V630.533H322.36V633.305H322.678C322.875 633.002 323.148 632.616 323.496 632.146C323.852 631.669 324.36 631.245 325.019 630.874C325.686 630.495 326.587 630.305 327.724 630.305C329.193 630.305 330.489 630.673 331.61 631.408C332.731 632.142 333.606 633.184 334.235 634.533C334.864 635.881 335.178 637.472 335.178 639.305C335.178 641.154 334.864 642.756 334.235 644.112C333.606 645.461 332.735 646.506 331.621 647.249C330.508 647.983 329.224 648.351 327.769 648.351C326.648 648.351 325.75 648.165 325.076 647.794C324.402 647.415 323.883 646.987 323.519 646.51C323.155 646.025 322.875 645.624 322.678 645.305H322.451V654.533H319.769ZM322.405 639.26C322.405 640.578 322.599 641.741 322.985 642.749C323.371 643.749 323.936 644.533 324.678 645.101C325.421 645.661 326.33 645.942 327.405 645.942C328.527 645.942 329.462 645.646 330.212 645.055C330.97 644.457 331.538 643.654 331.917 642.646C332.303 641.631 332.496 640.502 332.496 639.26C332.496 638.033 332.307 636.927 331.928 635.942C331.557 634.949 330.992 634.165 330.235 633.589C329.485 633.006 328.542 632.714 327.405 632.714C326.314 632.714 325.398 632.991 324.655 633.544C323.913 634.089 323.352 634.855 322.974 635.839C322.595 636.817 322.405 637.957 322.405 639.26Z" fill="white"/>
<path d="M274.918 570.808V581.955M274.918 581.955H263.771M274.918 581.955L266.316 573.855C263.754 571.291 260.427 569.629 256.838 569.12C253.248 568.611 249.591 569.282 246.416 571.032C243.242 572.783 240.722 575.518 239.237 578.825C237.752 582.132 237.382 585.832 238.183 589.368C238.983 592.903 240.912 596.083 243.677 598.427C246.442 600.772 249.894 602.154 253.513 602.366C257.132 602.577 260.722 601.607 263.742 599.601C266.761 597.595 269.047 594.662 270.255 591.244" stroke="#E58600" stroke-width="3" stroke-linecap="round" stroke-linejoin="round"/>
<path d="M126.112 143.62C127.36 142.42 128.128 138.82 128.128 134.884V113.908C128.128 109.972 127.36 106.372 126.112 105.172H149.824V108.916C148.624 107.668 146.896 106.132 141.088 106.132H135.76C131.824 106.132 131.728 109.972 131.728 113.908V123.796C132.736 122.02 134.56 121.252 137.248 121.204H137.776C141.712 121.204 145.312 119.908 146.512 118.66V124.708C145.312 123.46 141.712 122.164 137.776 122.164H137.584C133.648 122.164 131.728 123.652 131.728 128.5V134.884C131.728 138.82 132.496 142.42 133.744 143.62H126.112ZM151.284 143.62C152.532 142.42 153.3 138.82 153.3 134.884V113.908C153.3 109.972 152.532 106.372 151.284 105.172H158.916C157.668 106.372 156.9 109.972 156.9 113.908V134.884C156.9 138.82 156.996 142.66 160.98 142.66H166.404C172.74 142.66 175.332 139.828 176.436 138.58L175.284 142.66L174.996 143.62H151.284ZM202.869 143.62C204.117 142.42 203.253 139.252 201.861 135.22L193.893 113.284C193.413 112.132 192.885 111.028 192.357 110.02L182.901 136.324C181.797 139.828 181.173 142.564 182.277 143.62H177.189C178.437 142.42 180.693 139.492 182.325 135.22L191.733 108.964C190.677 107.188 189.621 105.844 188.901 105.172H194.853L205.893 135.508C207.477 139.396 209.685 142.468 210.885 143.62H202.869ZM222.855 144.388C216.471 144.388 212.103 141.748 210.663 137.188L214.551 132.244C214.551 138.82 218.199 143.428 223.527 143.428C227.799 143.428 232.119 139.972 232.119 134.26C232.119 123.124 212.631 126.004 212.631 112.612C212.631 107.524 217.575 104.452 223.191 104.452C228.903 104.452 230.823 107.524 234.231 107.524L230.871 111.748C230.391 108.004 227.943 105.412 223.431 105.412C219.975 105.412 216.327 107.572 216.327 111.172C216.327 123.124 235.959 118.756 235.959 133.636C235.959 140.356 229.959 144.388 222.855 144.388ZM238.19 143.62C239.438 142.42 240.206 138.82 240.206 134.884V113.908C240.206 109.972 239.438 106.372 238.19 105.172H245.822C244.574 106.372 243.806 109.972 243.806 113.908V128.212C244.862 126.388 246.878 125.62 249.902 125.572C259.262 125.38 260.702 122.116 260.702 114.724V113.908C260.702 109.972 259.934 106.372 258.686 105.172H266.318C265.07 106.372 264.302 109.972 264.302 113.908V134.884C264.302 138.82 265.07 142.42 266.318 143.62H258.686C259.934 142.42 260.702 138.82 260.702 134.884V124.42C258.398 125.956 254.942 126.436 250.094 126.532C245.726 126.628 243.806 127.972 243.806 132.82V134.884C243.806 138.82 244.574 142.42 245.822 143.62H238.19ZM283.215 144.388C275.007 144.388 267.663 137.908 267.663 124.372C267.663 110.932 275.007 104.452 283.215 104.452C286.527 104.452 289.743 105.508 292.383 107.668L288.687 112.372C287.535 107.908 284.271 105.748 281.535 105.748C276.255 105.748 270.639 109.78 271.839 124.372C273.039 139.012 279.615 142.132 284.895 142.132C288.351 142.132 291.615 141.172 294.831 136.9L295.599 137.476C292.671 142.132 288.063 144.388 283.215 144.388ZM321.134 143.62C322.382 142.42 321.518 139.252 320.126 135.22L312.158 113.284C311.678 112.132 311.15 111.028 310.622 110.02L301.166 136.324C300.062 139.828 299.438 142.564 300.542 143.62H295.454C296.702 142.42 298.958 139.492 300.59 135.22L309.998 108.964C308.942 107.188 307.886 105.844 307.166 105.172H313.118L324.158 135.508C325.742 139.396 327.95 142.468 329.15 143.62H321.134ZM330.909 143.62C332.157 142.42 332.925 138.82 332.925 134.884V113.908C332.925 109.972 332.157 106.372 330.909 105.172H336.141C338.397 105.172 339.453 104.452 341.997 104.452C349.533 104.452 355.773 109.108 355.773 116.26C355.773 122.068 352.173 125.908 347.181 127.156C351.741 128.212 354.189 131.284 355.293 136.084C356.349 139.78 356.781 142.516 357.933 143.62H350.397C351.645 142.42 352.557 138.82 351.645 134.884C350.589 130.612 348.285 127.78 343.341 127.636C340.029 127.636 337.389 126.292 336.525 124.42V134.884C336.525 138.82 337.293 142.42 338.541 143.62H330.909ZM336.525 118.372C336.525 125.044 340.557 126.676 343.341 126.676C349.005 126.676 352.317 122.116 351.309 114.82C350.349 107.716 345.117 105.412 341.469 105.412C336.813 105.412 336.525 109.972 336.525 113.86V118.372ZM360.346 143.62C361.594 142.42 362.362 138.82 362.362 134.884V113.908C362.362 109.972 361.594 106.372 360.346 105.172H365.578C367.834 105.172 368.794 104.452 370.906 104.452C379.114 104.452 386.554 110.932 386.554 124.372C386.554 137.908 379.114 144.388 371.962 144.388C368.554 144.388 367.93 143.62 365.962 143.62H360.346ZM365.962 134.884C365.962 141.556 369.802 143.332 372.586 143.332C377.914 143.332 383.578 139.012 382.378 124.372C381.178 109.78 374.554 105.412 370.714 105.412C366.25 105.412 365.962 109.972 365.962 113.86V134.884Z" fill="#E58600"/>
</svg>
