<svg width="1024" height="1024" viewBox="0 0 1024 1024" fill="none" xmlns="http://www.w3.org/2000/svg">
<path d="M512 0H1024V720H512V0Z" fill="#E58600"/>
<path d="M692.329 641.808V639.308H709.783V641.808H702.465V662.58H699.647V641.808H692.329ZM716.53 662.989C715.424 662.989 714.421 662.781 713.519 662.364C712.617 661.94 711.902 661.33 711.371 660.535C710.841 659.732 710.576 658.762 710.576 657.626C710.576 656.626 710.773 655.815 711.167 655.194C711.561 654.565 712.087 654.073 712.746 653.717C713.405 653.361 714.133 653.095 714.928 652.921C715.731 652.739 716.538 652.595 717.349 652.489C718.409 652.353 719.269 652.251 719.928 652.183C720.595 652.107 721.08 651.982 721.383 651.808C721.693 651.633 721.849 651.33 721.849 650.899V650.808C721.849 649.686 721.542 648.815 720.928 648.194C720.322 647.573 719.402 647.262 718.167 647.262C716.886 647.262 715.883 647.542 715.155 648.103C714.428 648.664 713.917 649.262 713.621 649.899L711.076 648.989C711.53 647.929 712.136 647.103 712.894 646.512C713.659 645.914 714.492 645.497 715.394 645.262C716.303 645.02 717.197 644.899 718.076 644.899C718.636 644.899 719.28 644.967 720.008 645.103C720.742 645.232 721.451 645.501 722.133 645.91C722.822 646.319 723.394 646.936 723.849 647.762C724.303 648.588 724.53 649.694 724.53 651.08V662.58H721.849V660.217H721.712C721.53 660.595 721.227 661.001 720.803 661.433C720.379 661.864 719.814 662.232 719.11 662.535C718.405 662.838 717.546 662.989 716.53 662.989ZM716.939 660.58C718 660.58 718.894 660.372 719.621 659.955C720.356 659.539 720.909 659.001 721.28 658.342C721.659 657.683 721.849 656.989 721.849 656.262V653.808C721.735 653.944 721.485 654.069 721.099 654.183C720.72 654.289 720.28 654.383 719.78 654.467C719.288 654.542 718.807 654.611 718.337 654.671C717.875 654.724 717.5 654.77 717.212 654.808C716.515 654.899 715.864 655.046 715.258 655.251C714.659 655.448 714.174 655.747 713.803 656.149C713.439 656.542 713.258 657.08 713.258 657.762C713.258 658.694 713.602 659.399 714.292 659.876C714.989 660.345 715.871 660.58 716.939 660.58ZM729.425 669.126V645.126H732.016V647.899H732.334C732.531 647.595 732.804 647.209 733.153 646.739C733.509 646.262 734.016 645.838 734.675 645.467C735.342 645.088 736.243 644.899 737.38 644.899C738.849 644.899 740.145 645.266 741.266 646.001C742.387 646.736 743.262 647.777 743.891 649.126C744.52 650.474 744.834 652.065 744.834 653.899C744.834 655.747 744.52 657.349 743.891 658.705C743.262 660.054 742.391 661.099 741.278 661.842C740.164 662.577 738.88 662.944 737.425 662.944C736.304 662.944 735.406 662.758 734.732 662.387C734.058 662.008 733.539 661.58 733.175 661.103C732.812 660.618 732.531 660.217 732.334 659.899H732.107V669.126H729.425ZM732.062 653.853C732.062 655.171 732.255 656.334 732.641 657.342C733.028 658.342 733.592 659.126 734.334 659.694C735.077 660.255 735.986 660.535 737.062 660.535C738.183 660.535 739.118 660.239 739.868 659.649C740.626 659.05 741.194 658.247 741.573 657.239C741.959 656.224 742.153 655.095 742.153 653.853C742.153 652.626 741.963 651.52 741.584 650.535C741.213 649.542 740.649 648.758 739.891 648.183C739.141 647.599 738.198 647.308 737.062 647.308C735.971 647.308 735.054 647.584 734.312 648.137C733.569 648.683 733.009 649.448 732.63 650.433C732.251 651.41 732.062 652.55 732.062 653.853ZM765.516 645.126V647.399H756.471V645.126H765.516ZM759.107 640.944H761.789V657.58C761.789 658.338 761.899 658.906 762.118 659.285C762.346 659.656 762.634 659.906 762.982 660.035C763.338 660.156 763.713 660.217 764.107 660.217C764.403 660.217 764.645 660.202 764.834 660.171C765.024 660.133 765.175 660.103 765.289 660.08L765.834 662.489C765.653 662.558 765.399 662.626 765.073 662.694C764.747 662.77 764.334 662.808 763.834 662.808C763.077 662.808 762.334 662.645 761.607 662.319C760.887 661.993 760.289 661.497 759.812 660.83C759.342 660.164 759.107 659.323 759.107 658.308V640.944ZM776.454 662.944C774.878 662.944 773.495 662.569 772.306 661.819C771.124 661.069 770.2 660.02 769.533 658.671C768.874 657.323 768.545 655.747 768.545 653.944C768.545 652.126 768.874 650.539 769.533 649.183C770.2 647.827 771.124 646.774 772.306 646.024C773.495 645.274 774.878 644.899 776.454 644.899C778.029 644.899 779.408 645.274 780.59 646.024C781.779 646.774 782.704 647.827 783.363 649.183C784.029 650.539 784.363 652.126 784.363 653.944C784.363 655.747 784.029 657.323 783.363 658.671C782.704 660.02 781.779 661.069 780.59 661.819C779.408 662.569 778.029 662.944 776.454 662.944ZM776.454 660.535C777.651 660.535 778.635 660.228 779.408 659.614C780.181 659.001 780.753 658.194 781.124 657.194C781.495 656.194 781.681 655.111 781.681 653.944C781.681 652.777 781.495 651.69 781.124 650.683C780.753 649.675 780.181 648.861 779.408 648.239C778.635 647.618 777.651 647.308 776.454 647.308C775.257 647.308 774.272 647.618 773.499 648.239C772.726 648.861 772.154 649.675 771.783 650.683C771.412 651.69 771.226 652.777 771.226 653.944C771.226 655.111 771.412 656.194 771.783 657.194C772.154 658.194 772.726 659.001 773.499 659.614C774.272 660.228 775.257 660.535 776.454 660.535ZM797.82 662.58V639.308H811.775V641.808H800.638V649.671H810.729V652.171H800.638V662.58H797.82ZM818.92 639.308V662.58H816.238V639.308H818.92ZM823.831 662.58V645.126H826.513V662.58H823.831ZM825.195 642.217C824.672 642.217 824.222 642.039 823.843 641.683C823.472 641.327 823.286 640.899 823.286 640.399C823.286 639.899 823.472 639.47 823.843 639.114C824.222 638.758 824.672 638.58 825.195 638.58C825.718 638.58 826.165 638.758 826.536 639.114C826.915 639.47 827.104 639.899 827.104 640.399C827.104 640.899 826.915 641.327 826.536 641.683C826.165 642.039 825.718 642.217 825.195 642.217ZM831.425 669.126V645.126H834.016V647.899H834.334C834.531 647.595 834.804 647.209 835.153 646.739C835.509 646.262 836.016 645.838 836.675 645.467C837.342 645.088 838.243 644.899 839.38 644.899C840.849 644.899 842.145 645.266 843.266 646.001C844.387 646.736 845.262 647.777 845.891 649.126C846.52 650.474 846.834 652.065 846.834 653.899C846.834 655.747 846.52 657.349 845.891 658.705C845.262 660.054 844.391 661.099 843.278 661.842C842.164 662.577 840.88 662.944 839.425 662.944C838.304 662.944 837.406 662.758 836.732 662.387C836.058 662.008 835.539 661.58 835.175 661.103C834.812 660.618 834.531 660.217 834.334 659.899H834.107V669.126H831.425ZM834.062 653.853C834.062 655.171 834.255 656.334 834.641 657.342C835.028 658.342 835.592 659.126 836.334 659.694C837.077 660.255 837.986 660.535 839.062 660.535C840.183 660.535 841.118 660.239 841.868 659.649C842.626 659.05 843.194 658.247 843.573 657.239C843.959 656.224 844.153 655.095 844.153 653.853C844.153 652.626 843.963 651.52 843.584 650.535C843.213 649.542 842.649 648.758 841.891 648.183C841.141 647.599 840.198 647.308 839.062 647.308C837.971 647.308 837.054 647.584 836.312 648.137C835.569 648.683 835.009 649.448 834.63 650.433C834.251 651.41 834.062 652.55 834.062 653.853Z" fill="white"/>
<path d="M638.112 114.134C639.36 112.934 640.128 109.334 640.128 105.398V84.4219C640.128 80.4859 639.36 76.8859 638.112 75.6859H661.824V79.4299C660.624 78.1819 658.896 76.6459 653.088 76.6459H647.76C643.824 76.6459 643.728 80.4859 643.728 84.4219V94.3099C644.736 92.5339 646.56 91.7659 649.248 91.7179H649.776C653.712 91.7179 657.312 90.4219 658.512 89.1739V95.2219C657.312 93.9739 653.712 92.6779 649.776 92.6779H649.584C645.648 92.6779 643.728 94.1659 643.728 99.0139V105.398C643.728 109.334 644.496 112.934 645.744 114.134H638.112ZM663.284 114.134C664.532 112.934 665.3 109.334 665.3 105.398V84.4219C665.3 80.4859 664.532 76.8859 663.284 75.6859H670.916C669.668 76.8859 668.9 80.4859 668.9 84.4219V105.398C668.9 109.334 668.996 113.174 672.98 113.174H678.404C684.74 113.174 687.332 110.342 688.436 109.094L687.284 113.174L686.996 114.134H663.284ZM714.869 114.134C716.117 112.934 715.253 109.766 713.861 105.734L705.893 83.7979C705.413 82.6459 704.885 81.5419 704.357 80.5339L694.901 106.838C693.797 110.342 693.173 113.078 694.277 114.134H689.189C690.437 112.934 692.693 110.006 694.325 105.734L703.733 79.4779C702.677 77.7019 701.621 76.3579 700.901 75.6859H706.853L717.893 106.022C719.477 109.91 721.685 112.982 722.885 114.134H714.869ZM734.855 114.902C728.471 114.902 724.103 112.262 722.663 107.702L726.551 102.758C726.551 109.334 730.199 113.942 735.527 113.942C739.799 113.942 744.119 110.486 744.119 104.774C744.119 93.6379 724.631 96.5179 724.631 83.1259C724.631 78.0379 729.575 74.9659 735.191 74.9659C740.903 74.9659 742.823 78.0379 746.231 78.0379L742.871 82.2619C742.391 78.5179 739.943 75.9259 735.431 75.9259C731.975 75.9259 728.327 78.0859 728.327 81.6859C728.327 93.6379 747.959 89.2699 747.959 104.15C747.959 110.87 741.959 114.902 734.855 114.902ZM750.19 114.134C751.438 112.934 752.206 109.334 752.206 105.398V84.4219C752.206 80.4859 751.438 76.8859 750.19 75.6859H757.822C756.574 76.8859 755.806 80.4859 755.806 84.4219V98.7259C756.862 96.9019 758.878 96.1339 761.902 96.0859C771.262 95.8939 772.702 92.6299 772.702 85.2379V84.4219C772.702 80.4859 771.934 76.8859 770.686 75.6859H778.318C777.07 76.8859 776.302 80.4859 776.302 84.4219V105.398C776.302 109.334 777.07 112.934 778.318 114.134H770.686C771.934 112.934 772.702 109.334 772.702 105.398V94.9339C770.398 96.4699 766.942 96.9499 762.094 97.0459C757.726 97.1419 755.806 98.4859 755.806 103.334V105.398C755.806 109.334 756.574 112.934 757.822 114.134H750.19ZM795.215 114.902C787.007 114.902 779.663 108.422 779.663 94.8859C779.663 81.4459 787.007 74.9659 795.215 74.9659C798.527 74.9659 801.743 76.0219 804.383 78.1819L800.687 82.8859C799.535 78.4219 796.271 76.2619 793.535 76.2619C788.255 76.2619 782.639 80.2939 783.839 94.8859C785.039 109.526 791.615 112.646 796.895 112.646C800.351 112.646 803.615 111.686 806.831 107.414L807.599 107.99C804.671 112.646 800.063 114.902 795.215 114.902ZM833.134 114.134C834.382 112.934 833.518 109.766 832.126 105.734L824.158 83.7979C823.678 82.6459 823.15 81.5419 822.622 80.5339L813.166 106.838C812.062 110.342 811.438 113.078 812.542 114.134H807.454C808.702 112.934 810.958 110.006 812.59 105.734L821.998 79.4779C820.942 77.7019 819.886 76.3579 819.166 75.6859H825.118L836.158 106.022C837.742 109.91 839.95 112.982 841.15 114.134H833.134ZM842.909 114.134C844.157 112.934 844.925 109.334 844.925 105.398V84.4219C844.925 80.4859 844.157 76.8859 842.909 75.6859H848.141C850.397 75.6859 851.453 74.9659 853.997 74.9659C861.533 74.9659 867.773 79.6219 867.773 86.7739C867.773 92.5819 864.173 96.4219 859.181 97.6699C863.741 98.7259 866.189 101.798 867.293 106.598C868.349 110.294 868.781 113.03 869.933 114.134H862.397C863.645 112.934 864.557 109.334 863.645 105.398C862.589 101.126 860.285 98.2939 855.341 98.1499C852.029 98.1499 849.389 96.8059 848.525 94.9339V105.398C848.525 109.334 849.293 112.934 850.541 114.134H842.909ZM848.525 88.8859C848.525 95.5579 852.557 97.1899 855.341 97.1899C861.005 97.1899 864.317 92.6299 863.309 85.3339C862.349 78.2299 857.117 75.9259 853.469 75.9259C848.813 75.9259 848.525 80.4859 848.525 84.3739V88.8859ZM872.346 114.134C873.594 112.934 874.362 109.334 874.362 105.398V84.4219C874.362 80.4859 873.594 76.8859 872.346 75.6859H877.578C879.834 75.6859 880.794 74.9659 882.906 74.9659C891.114 74.9659 898.554 81.4459 898.554 94.8859C898.554 108.422 891.114 114.902 883.962 114.902C880.554 114.902 879.93 114.134 877.962 114.134H872.346ZM877.962 105.398C877.962 112.07 881.802 113.846 884.586 113.846C889.914 113.846 895.578 109.526 894.378 94.8859C893.178 80.2939 886.554 75.9259 882.714 75.9259C878.25 75.9259 877.962 80.4859 877.962 84.3739V105.398Z" fill="#242424"/>
<path d="M786.574 585.401V596.548M786.574 596.548H775.427M786.574 596.548L777.972 588.448C775.41 585.884 772.083 584.222 768.494 583.713C764.905 583.204 761.247 583.875 758.073 585.625C754.898 587.376 752.378 590.111 750.893 593.418C749.408 596.725 749.038 600.425 749.839 603.961C750.64 607.496 752.568 610.676 755.333 613.02C758.098 615.365 761.55 616.747 765.169 616.959C768.788 617.17 772.378 616.2 775.398 614.194C778.417 612.188 780.703 609.255 781.911 605.837" stroke="#242424" stroke-width="3" stroke-linecap="round" stroke-linejoin="round"/>
<path d="M0 0H512V720H0V0Z" fill="#242424"/>
<path d="M180.672 627.214V624.714H198.127V627.214H190.809V647.987H187.991V627.214H180.672ZM204.874 648.396C203.768 648.396 202.764 648.188 201.863 647.771C200.961 647.347 200.245 646.737 199.715 645.942C199.185 645.139 198.92 644.169 198.92 643.033C198.92 642.033 199.117 641.222 199.51 640.601C199.904 639.972 200.431 639.48 201.09 639.124C201.749 638.767 202.476 638.502 203.272 638.328C204.075 638.146 204.882 638.002 205.692 637.896C206.753 637.76 207.613 637.658 208.272 637.589C208.939 637.514 209.423 637.389 209.726 637.214C210.037 637.04 210.192 636.737 210.192 636.305V636.214C210.192 635.093 209.885 634.222 209.272 633.601C208.666 632.98 207.745 632.669 206.51 632.669C205.23 632.669 204.226 632.949 203.499 633.51C202.772 634.071 202.26 634.669 201.965 635.305L199.42 634.396C199.874 633.336 200.48 632.51 201.238 631.919C202.003 631.321 202.836 630.904 203.738 630.669C204.647 630.427 205.541 630.305 206.42 630.305C206.98 630.305 207.624 630.374 208.351 630.51C209.086 630.639 209.795 630.908 210.476 631.317C211.166 631.726 211.738 632.343 212.192 633.169C212.647 633.995 212.874 635.101 212.874 636.487V647.987H210.192V645.624H210.056C209.874 646.002 209.571 646.408 209.147 646.839C208.723 647.271 208.158 647.639 207.454 647.942C206.749 648.245 205.889 648.396 204.874 648.396ZM205.283 645.987C206.344 645.987 207.238 645.779 207.965 645.362C208.7 644.946 209.253 644.408 209.624 643.749C210.003 643.089 210.192 642.396 210.192 641.669V639.214C210.079 639.351 209.829 639.476 209.442 639.589C209.064 639.696 208.624 639.79 208.124 639.874C207.632 639.949 207.151 640.017 206.681 640.078C206.219 640.131 205.844 640.177 205.556 640.214C204.859 640.305 204.207 640.453 203.601 640.658C203.003 640.855 202.518 641.154 202.147 641.555C201.783 641.949 201.601 642.487 201.601 643.169C201.601 644.101 201.946 644.805 202.635 645.283C203.332 645.752 204.215 645.987 205.283 645.987ZM217.769 654.533V630.533H220.36V633.305H220.678C220.875 633.002 221.148 632.616 221.496 632.146C221.852 631.669 222.36 631.245 223.019 630.874C223.686 630.495 224.587 630.305 225.724 630.305C227.193 630.305 228.489 630.673 229.61 631.408C230.731 632.142 231.606 633.184 232.235 634.533C232.864 635.881 233.178 637.472 233.178 639.305C233.178 641.154 232.864 642.756 232.235 644.112C231.606 645.461 230.735 646.506 229.621 647.249C228.508 647.983 227.224 648.351 225.769 648.351C224.648 648.351 223.75 648.165 223.076 647.794C222.402 647.415 221.883 646.987 221.519 646.51C221.155 646.025 220.875 645.624 220.678 645.305H220.451V654.533H217.769ZM220.405 639.26C220.405 640.578 220.599 641.741 220.985 642.749C221.371 643.749 221.936 644.533 222.678 645.101C223.421 645.661 224.33 645.942 225.405 645.942C226.527 645.942 227.462 645.646 228.212 645.055C228.97 644.457 229.538 643.654 229.917 642.646C230.303 641.631 230.496 640.502 230.496 639.26C230.496 638.033 230.307 636.927 229.928 635.942C229.557 634.949 228.992 634.165 228.235 633.589C227.485 633.006 226.542 632.714 225.405 632.714C224.314 632.714 223.398 632.991 222.655 633.544C221.913 634.089 221.352 634.855 220.974 635.839C220.595 636.817 220.405 637.957 220.405 639.26ZM253.86 630.533V632.805H244.814V630.533H253.86ZM247.451 626.351H250.133V642.987C250.133 643.745 250.242 644.313 250.462 644.692C250.689 645.063 250.977 645.313 251.326 645.442C251.682 645.563 252.057 645.624 252.451 645.624C252.746 645.624 252.989 645.608 253.178 645.578C253.367 645.54 253.519 645.51 253.633 645.487L254.178 647.896C253.996 647.964 253.742 648.033 253.417 648.101C253.091 648.177 252.678 648.214 252.178 648.214C251.421 648.214 250.678 648.052 249.951 647.726C249.231 647.4 248.633 646.904 248.155 646.237C247.686 645.571 247.451 644.73 247.451 643.714V626.351ZM264.797 648.351C263.222 648.351 261.839 647.976 260.65 647.226C259.468 646.476 258.544 645.427 257.877 644.078C257.218 642.73 256.888 641.154 256.888 639.351C256.888 637.533 257.218 635.946 257.877 634.589C258.544 633.233 259.468 632.18 260.65 631.43C261.839 630.68 263.222 630.305 264.797 630.305C266.373 630.305 267.752 630.68 268.934 631.43C270.123 632.18 271.047 633.233 271.706 634.589C272.373 635.946 272.706 637.533 272.706 639.351C272.706 641.154 272.373 642.73 271.706 644.078C271.047 645.427 270.123 646.476 268.934 647.226C267.752 647.976 266.373 648.351 264.797 648.351ZM264.797 645.942C265.994 645.942 266.979 645.635 267.752 645.021C268.525 644.408 269.097 643.601 269.468 642.601C269.839 641.601 270.025 640.517 270.025 639.351C270.025 638.184 269.839 637.097 269.468 636.089C269.097 635.082 268.525 634.267 267.752 633.646C266.979 633.025 265.994 632.714 264.797 632.714C263.6 632.714 262.616 633.025 261.843 633.646C261.07 634.267 260.498 635.082 260.127 636.089C259.756 637.097 259.57 638.184 259.57 639.351C259.57 640.517 259.756 641.601 260.127 642.601C260.498 643.601 261.07 644.408 261.843 645.021C262.616 645.635 263.6 645.942 264.797 645.942ZM286.164 647.987V624.714H300.118V627.214H288.982V635.078H299.073V637.578H288.982V647.987H286.164ZM307.263 624.714V647.987H304.581V624.714H307.263ZM312.175 647.987V630.533H314.857V647.987H312.175ZM313.539 627.624C313.016 627.624 312.565 627.446 312.187 627.089C311.815 626.733 311.63 626.305 311.63 625.805C311.63 625.305 311.815 624.877 312.187 624.521C312.565 624.165 313.016 623.987 313.539 623.987C314.062 623.987 314.509 624.165 314.88 624.521C315.259 624.877 315.448 625.305 315.448 625.805C315.448 626.305 315.259 626.733 314.88 627.089C314.509 627.446 314.062 627.624 313.539 627.624ZM319.769 654.533V630.533H322.36V633.305H322.678C322.875 633.002 323.148 632.616 323.496 632.146C323.852 631.669 324.36 631.245 325.019 630.874C325.686 630.495 326.587 630.305 327.724 630.305C329.193 630.305 330.489 630.673 331.61 631.408C332.731 632.142 333.606 633.184 334.235 634.533C334.864 635.881 335.178 637.472 335.178 639.305C335.178 641.154 334.864 642.756 334.235 644.112C333.606 645.461 332.735 646.506 331.621 647.249C330.508 647.983 329.224 648.351 327.769 648.351C326.648 648.351 325.75 648.165 325.076 647.794C324.402 647.415 323.883 646.987 323.519 646.51C323.155 646.025 322.875 645.624 322.678 645.305H322.451V654.533H319.769ZM322.405 639.26C322.405 640.578 322.599 641.741 322.985 642.749C323.371 643.749 323.936 644.533 324.678 645.101C325.421 645.661 326.33 645.942 327.405 645.942C328.527 645.942 329.462 645.646 330.212 645.055C330.97 644.457 331.538 643.654 331.917 642.646C332.303 641.631 332.496 640.502 332.496 639.26C332.496 638.033 332.307 636.927 331.928 635.942C331.557 634.949 330.992 634.165 330.235 633.589C329.485 633.006 328.542 632.714 327.405 632.714C326.314 632.714 325.398 632.991 324.655 633.544C323.913 634.089 323.352 634.855 322.974 635.839C322.595 636.817 322.405 637.957 322.405 639.26Z" fill="white"/>
<path d="M274.918 570.808V581.955M274.918 581.955H263.771M274.918 581.955L266.316 573.855C263.754 571.291 260.427 569.629 256.838 569.12C253.248 568.611 249.591 569.282 246.416 571.032C243.242 572.783 240.722 575.518 239.237 578.825C237.752 582.132 237.382 585.832 238.183 589.368C238.983 592.903 240.912 596.083 243.677 598.427C246.442 600.772 249.894 602.154 253.513 602.366C257.132 602.577 260.722 601.607 263.742 599.601C266.761 597.595 269.047 594.662 270.255 591.244" stroke="#E58600" stroke-width="3" stroke-linecap="round" stroke-linejoin="round"/>
<path d="M107.881 114.134C109.129 112.934 109.897 109.334 109.897 105.398V84.4219C109.897 80.4859 109.129 76.8859 107.881 75.6859H131.593V79.4299C130.393 78.1819 128.665 76.6459 122.857 76.6459H117.529C113.593 76.6459 113.497 80.4859 113.497 84.4219V94.3099C114.505 92.5339 116.329 91.7659 119.017 91.7179H119.545C123.481 91.7179 127.081 90.4219 128.281 89.1739V95.2219C127.081 93.9739 123.481 92.6779 119.545 92.6779H119.353C115.417 92.6779 113.497 94.1659 113.497 99.0139V105.398C113.497 109.334 114.265 112.934 115.513 114.134H107.881ZM133.053 114.134C134.301 112.934 135.069 109.334 135.069 105.398V84.4219C135.069 80.4859 134.301 76.8859 133.053 75.6859H140.685C139.437 76.8859 138.669 80.4859 138.669 84.4219V105.398C138.669 109.334 138.765 113.174 142.749 113.174H148.173C154.509 113.174 157.101 110.342 158.205 109.094L157.053 113.174L156.765 114.134H133.053ZM184.638 114.134C185.886 112.934 185.022 109.766 183.63 105.734L175.662 83.7979C175.182 82.6459 174.654 81.5419 174.126 80.5339L164.67 106.838C163.566 110.342 162.942 113.078 164.046 114.134H158.958C160.206 112.934 162.462 110.006 164.094 105.734L173.502 79.4779C172.446 77.7019 171.39 76.3579 170.67 75.6859H176.622L187.662 106.022C189.246 109.91 191.454 112.982 192.654 114.134H184.638ZM204.625 114.902C198.241 114.902 193.873 112.262 192.433 107.702L196.321 102.758C196.321 109.334 199.969 113.942 205.297 113.942C209.569 113.942 213.889 110.486 213.889 104.774C213.889 93.6379 194.401 96.5179 194.401 83.1259C194.401 78.0379 199.345 74.9659 204.961 74.9659C210.673 74.9659 212.593 78.0379 216.001 78.0379L212.641 82.2619C212.161 78.5179 209.713 75.9259 205.201 75.9259C201.745 75.9259 198.097 78.0859 198.097 81.6859C198.097 93.6379 217.729 89.2699 217.729 104.15C217.729 110.87 211.729 114.902 204.625 114.902ZM219.96 114.134C221.208 112.934 221.976 109.334 221.976 105.398V84.4219C221.976 80.4859 221.208 76.8859 219.96 75.6859H227.592C226.344 76.8859 225.576 80.4859 225.576 84.4219V98.7259C226.632 96.9019 228.648 96.1339 231.672 96.0859C241.032 95.8939 242.472 92.6299 242.472 85.2379V84.4219C242.472 80.4859 241.704 76.8859 240.456 75.6859H248.088C246.84 76.8859 246.072 80.4859 246.072 84.4219V105.398C246.072 109.334 246.84 112.934 248.088 114.134H240.456C241.704 112.934 242.472 109.334 242.472 105.398V94.9339C240.168 96.4699 236.712 96.9499 231.864 97.0459C227.496 97.1419 225.576 98.4859 225.576 103.334V105.398C225.576 109.334 226.344 112.934 227.592 114.134H219.96ZM264.985 114.902C256.777 114.902 249.433 108.422 249.433 94.8859C249.433 81.4459 256.777 74.9659 264.985 74.9659C268.297 74.9659 271.513 76.0219 274.153 78.1819L270.457 82.8859C269.305 78.4219 266.041 76.2619 263.305 76.2619C258.025 76.2619 252.409 80.2939 253.609 94.8859C254.809 109.526 261.385 112.646 266.665 112.646C270.121 112.646 273.385 111.686 276.601 107.414L277.369 107.99C274.441 112.646 269.833 114.902 264.985 114.902ZM302.904 114.134C304.152 112.934 303.288 109.766 301.896 105.734L293.928 83.7979C293.448 82.6459 292.92 81.5419 292.392 80.5339L282.936 106.838C281.832 110.342 281.208 113.078 282.312 114.134H277.224C278.472 112.934 280.728 110.006 282.36 105.734L291.768 79.4779C290.712 77.7019 289.656 76.3579 288.936 75.6859H294.888L305.928 106.022C307.512 109.91 309.72 112.982 310.92 114.134H302.904ZM312.678 114.134C313.926 112.934 314.694 109.334 314.694 105.398V84.4219C314.694 80.4859 313.926 76.8859 312.678 75.6859H317.91C320.166 75.6859 321.222 74.9659 323.766 74.9659C331.302 74.9659 337.542 79.6219 337.542 86.7739C337.542 92.5819 333.942 96.4219 328.95 97.6699C333.51 98.7259 335.958 101.798 337.062 106.598C338.118 110.294 338.55 113.03 339.702 114.134H332.166C333.414 112.934 334.326 109.334 333.414 105.398C332.358 101.126 330.054 98.2939 325.11 98.1499C321.798 98.1499 319.158 96.8059 318.294 94.9339V105.398C318.294 109.334 319.062 112.934 320.31 114.134H312.678ZM318.294 88.8859C318.294 95.5579 322.326 97.1899 325.11 97.1899C330.774 97.1899 334.086 92.6299 333.078 85.3339C332.118 78.2299 326.886 75.9259 323.238 75.9259C318.582 75.9259 318.294 80.4859 318.294 84.3739V88.8859ZM342.116 114.134C343.364 112.934 344.132 109.334 344.132 105.398V84.4219C344.132 80.4859 343.364 76.8859 342.116 75.6859H347.348C349.604 75.6859 350.564 74.9659 352.676 74.9659C360.884 74.9659 368.324 81.4459 368.324 94.8859C368.324 108.422 360.884 114.902 353.732 114.902C350.324 114.902 349.7 114.134 347.732 114.134H342.116ZM347.732 105.398C347.732 112.07 351.572 113.846 354.356 113.846C359.684 113.846 365.348 109.526 364.148 94.8859C362.948 80.2939 356.324 75.9259 352.484 75.9259C348.02 75.9259 347.732 80.4859 347.732 84.3739V105.398Z" fill="#E58600"/>
</svg>
